<svg width="320" height="241" viewBox="0 0 320 241" fill="none" xmlns="http://www.w3.org/2000/svg">
<path fill-rule="evenodd" clip-rule="evenodd" d="M229.902 1.26145C226.327 2.81817 219.973 9.61175 217.759 14.2441C216.911 16.0202 214.711 16.6708 213.033 15.6418L211.557 14.7371C205.388 10.9533 190.786 6.24036 181.169 4.92865C171.415 3.59802 148.337 3.5791 139.067 4.89379C127.599 6.52023 116.943 9.6486 108.582 13.8427L107.072 14.6002C103.427 16.4295 98.9904 15.2774 96.6956 11.9055C94.4906 8.66557 91.3354 5.05514 89.6844 3.88187C79.6966 -3.21349 67.8911 4.0253 66.889 17.8605C66.32 25.7098 66.7312 26.9209 73.3013 36.7303C76.7987 41.9508 77.1724 48.6627 74.276 54.2392L74.0838 54.6091C71.3947 59.7852 66.1243 69.4213 62.3712 76.0227C47.3356 102.464 39.8173 119.707 35.585 137.451C33.6595 145.523 33.3531 149.615 33.3161 167.702C33.2832 184.173 33.6206 189.822 34.9042 194.288C36.4874 199.794 36.4754 200.012 34.507 201.758C30.8936 204.962 27.7902 213.014 27.7802 219.215C27.7747 222.382 25.2405 224.966 22.0735 225.032L2.46197 225.444C1.73544 225.46 1.05067 225.789 0.584745 226.347C-0.194457 227.279 -0.195143 228.637 0.584056 229.569C1.05056 230.128 1.73621 230.456 2.46367 230.471L15.6463 230.725C29.5011 230.993 30.091 231.092 33.5357 233.713C36.2198 235.756 38.2292 236.424 41.6919 236.424C44.9439 236.424 47.119 237.079 49.1403 238.665C52.8076 241.543 58.5192 241.631 62.0448 238.864C64.0851 237.263 65.0693 237.048 66.6055 237.868C71.6423 240.558 79.7675 237.962 81.4584 233.122C82.0591 231.402 83.6735 230.244 85.4947 230.226L155.681 229.536C195.954 229.14 231.262 229.129 234.144 229.511C237.379 229.94 239.385 230.695 239.385 231.484C239.385 233.439 245.24 237.918 247.797 237.918C249.045 237.918 251.472 237.429 253.188 236.833C255.853 235.905 256.697 236.051 258.962 237.829C262.7 240.763 267.461 240.513 271.443 237.171C274.179 234.876 275.464 234.486 279.377 234.763C283.387 235.048 284.523 234.676 287.432 232.128C290.73 229.238 291.198 229.139 305.279 228.31C318.789 227.516 319.738 227.33 319.738 225.468C319.738 223.591 318.98 223.461 306.512 223.199L297.987 223.02C295.374 222.965 293.284 220.832 293.28 218.219C293.272 211.109 291.521 206.216 287.409 201.818C285.084 199.331 284.141 195.854 284.891 192.533L285.071 191.736C286.96 183.375 287.161 156.112 285.418 144.794C282.114 123.346 273.645 103.4 254.593 72.1931C251.547 67.2053 246.664 58.6936 243.743 53.2795L240.608 47.4709C239.286 45.0211 239.546 42.02 241.269 39.8338C250.907 27.6081 252.976 18.6672 248.332 9.31694C244.241 1.07819 237.294 -1.95855 229.902 1.26145ZM240.931 8.49127C243.855 11.6406 245.775 18.0587 244.874 21.6751C243.943 25.406 238.771 33.6298 234.677 37.8856C232.564 40.0822 232.017 43.3519 233.302 46.1161L233.643 46.8494C235.951 51.8134 243.889 65.8517 256.364 87.0273C264.475 100.798 272.885 118.937 275.755 128.858C281.136 147.455 282.675 174.21 279.267 189.931C278.339 194.214 277.803 195.109 276.471 194.599C262.631 189.299 246.978 192.714 235.976 203.431C229.798 209.45 227.242 213.904 227.047 218.993C226.969 221.044 225.299 222.675 223.247 222.705L182.075 223.313C157.417 223.677 127.435 223.975 115.446 223.975H97.4389C95.3464 223.975 93.6502 222.278 93.6502 220.186C93.6502 212.818 83.6354 201.285 72.8631 196.247C65.743 192.918 53.8427 192.528 46.8285 195.395C43.4227 196.786 42.2568 196.914 41.6649 195.959C39.7634 192.889 38.5237 177.038 39.0327 162.306C39.9451 135.883 45.5189 118.722 63.8305 85.9576C76.6691 62.9863 85.6647 45.1523 85.6647 42.6733C85.6647 41.7221 84.5647 40.2242 83.2202 39.3447C79.1616 36.6914 72.2512 24.1142 72.4269 19.701C72.7303 12.1246 78.1115 5.99335 83.314 7.29609C86.8835 8.19048 91.2016 12.9851 94.7472 19.9948C96.3552 23.173 98.2268 25.7715 98.9046 25.7675C99.5834 25.7646 101.486 24.8443 103.133 23.7238C109.529 19.3724 118.347 15.506 127.51 13.0339C136.49 10.6127 138.468 10.4553 160.029 10.4504C182.168 10.4444 183.301 10.541 191.778 13.1415C200.632 15.8585 208.689 19.469 213.586 22.9141C217.853 25.9159 219.06 25.2576 222.998 17.7798C229.123 6.14873 235.626 2.78132 240.931 8.49127ZM228.999 19.964C226.86 23.0117 226.993 25.0933 229.471 27.3302C231.358 29.0344 231.766 29.0652 234.212 27.6948C236.413 26.4627 236.889 25.4936 236.889 22.2507C236.889 18.5517 236.691 18.2857 233.741 17.9999C231.381 17.7708 230.193 18.2638 228.999 19.964ZM80.1049 21.2139C79.1676 24.9439 79.9482 27.0653 82.8588 28.6947C85.2964 30.0602 85.7077 30.0283 87.5932 28.3262C88.7281 27.3004 89.6575 25.7347 89.6575 24.8463C89.6575 19.3963 81.3566 16.24 80.1049 21.2139ZM97.031 55.5603C87.3417 61.4555 87.2169 82.645 96.8364 88.4973C103.843 92.7591 112.243 89.8748 115.73 82.0085C119.768 72.9013 117.617 60.9326 111.012 55.7485C107.627 53.0913 101.229 53.0056 97.031 55.5603ZM207.942 58.863C206.295 59.4456 203.714 60.7832 202.206 61.8369C198.807 64.2124 194.064 72.0935 194.832 74.0915C195.762 76.5097 199.408 75.7846 202.046 72.6573C207.195 66.5509 217.18 65.1685 223.534 69.6833C226.735 71.9571 228.736 72.0975 230.348 70.1594C233.635 66.2073 222.375 57.5283 214.212 57.7246C212.411 57.7674 209.589 58.2803 207.942 58.863ZM110.619 62.6258C111.717 63.7213 112.616 65.7382 112.616 67.1077C112.616 69.5827 109.533 73.5815 107.625 73.5815C105.662 73.5815 102.634 69.5498 102.634 66.9374C102.634 64.0381 105.143 60.6338 107.28 60.6338C108.019 60.6338 109.521 61.5302 110.619 62.6258ZM272.461 200.117C280.641 202.867 282.845 204.472 285.252 209.432C288.882 216.915 287.521 224.866 282.087 227.909C279.531 229.34 279.252 229.27 276.325 226.472C272.692 222.998 270.697 223.654 268.952 228.892C266.838 235.236 262.274 235.335 261.017 229.062C260.133 224.65 256.877 224.42 253.722 228.545C249.291 234.343 243.587 232.142 244.983 225.173C245.762 221.288 244.147 220.414 239.202 222.042C235.838 223.151 235.098 223.132 234.308 221.918C232.044 218.446 237.123 209.687 244.23 204.809C254.172 197.983 262.163 196.655 272.461 200.117ZM70.3327 202.474C79.8543 206.897 88.8829 217.646 87.0602 222.386C86.3595 224.208 83.5815 224.485 81.9864 222.894C81.3915 222.3 79.8413 221.964 78.5427 222.147C76.5793 222.425 76.1271 223.148 75.8576 226.452C75.6799 228.636 75.0631 230.989 74.4881 231.68C73.0597 233.398 70.0452 233.262 68.485 231.41C63.6878 225.712 62.3672 225.6 59.9676 230.684C59.0023 232.731 57.4042 234.561 56.418 234.75C53.9945 235.216 51.7266 233.173 51.7266 230.526C51.7266 226.113 46.7167 224.272 44.7393 227.958C43.1881 230.851 38.2392 230.622 36.2318 227.566C32.4507 221.807 33.6415 212.294 38.7862 207.16C45.7625 200.199 60.6703 197.984 70.3327 202.474Z" fill="black"/>
<path fill-rule="evenodd" clip-rule="evenodd" d="M87.0602 222.386C88.8829 217.646 79.8543 206.897 70.3327 202.474C60.6703 197.984 45.7625 200.199 38.7862 207.16C33.6415 212.294 32.4507 221.807 36.2318 227.566C38.2392 230.622 43.1881 230.851 44.7393 227.958C46.7167 224.272 51.7266 226.113 51.7266 230.526C51.7266 233.173 53.9945 235.216 56.418 234.75C57.4042 234.561 59.0023 232.731 59.9676 230.684C62.3672 225.6 63.6878 225.712 68.485 231.41C70.0452 233.262 73.0597 233.398 74.4881 231.68C75.0631 230.989 75.6799 228.636 75.8576 226.452C76.1271 223.148 76.5793 222.425 78.5427 222.147C79.8413 221.964 81.3915 222.3 81.9864 222.894C83.5815 224.485 86.3595 224.208 87.0602 222.386Z" fill="#C58F58"/>
<path fill-rule="evenodd" clip-rule="evenodd" d="M285.252 209.432C282.845 204.472 280.641 202.867 272.461 200.117C262.163 196.655 254.172 197.983 244.23 204.809C237.123 209.687 232.044 218.446 234.308 221.918C235.098 223.132 235.838 223.151 239.202 222.042C244.147 220.414 245.762 221.288 244.983 225.173C243.587 232.142 249.291 234.343 253.722 228.545C256.877 224.42 260.133 224.65 261.017 229.062C262.274 235.335 266.838 235.236 268.952 228.892C270.697 223.654 272.692 222.998 276.325 226.472C279.252 229.27 279.531 229.34 282.087 227.909C287.521 224.866 288.882 216.915 285.252 209.432Z" fill="#C58F58"/>
<path fill-rule="evenodd" clip-rule="evenodd" d="M244.874 21.6751C245.775 18.0587 243.855 11.6406 240.931 8.49127C235.626 2.78132 229.123 6.14873 222.998 17.7798C219.06 25.2576 217.853 25.9159 213.586 22.9141C208.689 19.469 200.632 15.8585 191.778 13.1415C183.301 10.541 182.168 10.4444 160.029 10.4504C138.468 10.4553 136.49 10.6127 127.51 13.0339C118.347 15.506 109.529 19.3724 103.133 23.7238C101.486 24.8443 99.5834 25.7646 98.9046 25.7675C98.2268 25.7715 96.3552 23.173 94.7472 19.9948C91.2016 12.9851 86.8835 8.19048 83.314 7.29609C78.1115 5.99335 72.7303 12.1246 72.4269 19.701C72.2512 24.1142 79.1616 36.6914 83.2202 39.3447C84.5647 40.2242 85.6647 41.7221 85.6647 42.6733C85.6647 45.1523 76.6691 62.9863 63.8305 85.9576C45.5189 118.722 39.9451 135.883 39.0327 162.306C38.5237 177.038 39.7634 192.889 41.6649 195.959C42.2568 196.914 43.4227 196.786 46.8285 195.395C53.8427 192.528 65.743 192.918 72.8631 196.247C83.6354 201.285 93.6502 212.818 93.6502 220.186C93.6502 222.278 95.3464 223.975 97.4389 223.975H115.446C127.435 223.975 157.417 223.677 182.075 223.313L223.247 222.705C225.299 222.675 226.969 221.044 227.047 218.993C227.242 213.904 229.798 209.45 235.976 203.431C246.978 192.714 262.631 189.299 276.471 194.599C277.803 195.109 278.339 194.214 279.267 189.931C282.675 174.21 281.136 147.455 275.755 128.858C272.885 118.937 264.475 100.798 256.364 87.0273C243.889 65.8517 235.951 51.8134 233.643 46.8494L233.302 46.1161C232.017 43.3519 232.564 40.0822 234.677 37.8856C238.771 33.6298 243.943 25.406 244.874 21.6751ZM228.999 19.964C226.86 23.0117 226.993 25.0933 229.471 27.3302C231.358 29.0344 231.766 29.0652 234.212 27.6948C236.413 26.4627 236.889 25.4936 236.889 22.2507C236.889 18.5517 236.691 18.2857 233.741 17.9999C231.381 17.7708 230.193 18.2638 228.999 19.964ZM80.1049 21.2139C79.1676 24.9439 79.9482 27.0653 82.8588 28.6947C85.2964 30.0602 85.7077 30.0283 87.5932 28.3262C88.7281 27.3004 89.6575 25.7347 89.6575 24.8463C89.6575 19.3963 81.3566 16.24 80.1049 21.2139ZM97.031 55.5603C87.3417 61.4555 87.2169 82.645 96.8364 88.4973C103.843 92.7591 112.243 89.8748 115.73 82.0085C119.768 72.9013 117.617 60.9326 111.012 55.7485C107.627 53.0913 101.229 53.0056 97.031 55.5603ZM207.942 58.863C206.295 59.4456 203.714 60.7832 202.206 61.8369C198.807 64.2124 194.064 72.0935 194.832 74.0915C195.762 76.5097 199.408 75.7846 202.046 72.6573C207.195 66.5509 217.18 65.1685 223.534 69.6833C226.735 71.9571 228.736 72.0975 230.348 70.1594C233.635 66.2073 222.375 57.5283 214.212 57.7246C212.411 57.7674 209.589 58.2803 207.942 58.863Z" fill="#E3B279"/>
<path d="M115.091 137.54C113.964 107.082 123.332 90.8314 144.802 86.0017C184.57 77.0563 207.948 98.5302 205.403 141.667C203.278 177.685 184.851 194.392 152.449 189.674C127.124 185.986 116.326 170.918 115.091 137.54Z" fill="#C58F58"/>
<path fill-rule="evenodd" clip-rule="evenodd" d="M158.282 173.925V169.147C158.282 164.458 158.169 160.67 158.032 160.729C157.896 160.789 155.456 162.246 152.611 163.966C148.127 166.68 147.514 167.426 147.992 169.585C149.276 175.383 150.676 177.044 154.546 177.364C156.557 177.531 158.282 175.943 158.282 173.925Z" fill="white"/>
<path fill-rule="evenodd" clip-rule="evenodd" d="M166.19 177.553C170.299 177.553 170.764 176.918 172.562 168.859C172.975 167.004 172.174 166.162 167.666 163.727C165.231 162.411 162.275 164.174 162.275 166.941V173.638C162.275 175.8 164.027 177.553 166.19 177.553Z" fill="white"/>
<path fill-rule="evenodd" clip-rule="evenodd" d="M156.284 136.17C156.285 123.518 156.64 117.839 157.483 116.997C158.988 115.497 159.494 115.503 161.572 117.047C163.012 118.118 163.284 120.791 163.509 136.173L163.701 149.225C163.745 152.252 165.262 155.068 167.765 156.771C177.051 163.089 183.443 162.694 189.687 155.416C193.558 150.904 196.535 150.655 197.018 154.804C197.598 159.791 187.243 168.499 180.65 168.567C178.941 168.585 178.341 169.577 177.339 174.047C175.477 182.351 173.409 183.529 160.699 183.529C151.42 183.529 150.147 183.305 147.757 181.254C146.147 179.872 144.618 177.059 143.861 174.087C142.637 169.275 142.532 169.175 137.519 168.048C128.806 166.09 121.012 158 123.454 153.447C124.883 150.783 126.287 151.237 130.003 155.57C136.052 162.62 142.95 163.195 151.542 157.365C154.507 155.352 156.282 152.002 156.282 148.419L156.284 136.17ZM158.282 169.147V173.925C158.282 175.943 156.557 177.531 154.546 177.364C150.676 177.044 149.276 175.383 147.992 169.585C147.514 167.426 148.127 166.68 152.611 163.966C155.456 162.246 157.896 160.789 158.032 160.729C158.169 160.67 158.282 164.458 158.282 169.147ZM172.562 168.859C170.764 176.918 170.299 177.553 166.19 177.553C164.027 177.553 162.275 175.8 162.275 173.638V166.941C162.275 164.174 165.231 162.411 167.666 163.727C172.174 166.162 172.975 167.004 172.562 168.859Z" fill="black"/>
<path fill-rule="evenodd" clip-rule="evenodd" d="M173.382 103.914C173.958 102.264 175.979 99.5579 177.87 97.9005C184.075 92.4635 189.783 95.3618 186.75 102.408C183.984 108.839 177.613 112.183 174.343 108.92C172.645 107.226 172.496 106.451 173.382 103.914Z" fill="black"/>
<path fill-rule="evenodd" clip-rule="evenodd" d="M138.952 109.325C132.804 106.415 129.201 98.2153 133.078 95.9624C135.404 94.6108 135.947 94.6417 139.194 96.3169C140.719 97.1038 143.05 99.7859 144.374 102.276L145.378 104.165C146.211 105.733 145.922 107.662 144.665 108.916C142.611 110.966 142.442 110.978 138.952 109.325Z" fill="black"/>
<path fill-rule="evenodd" clip-rule="evenodd" d="M145.714 193.002C152.549 195.07 168.115 194.821 175.75 192.521C183.055 190.319 184.647 190.416 185.031 193.088C185.435 195.897 183.788 197.031 176.748 198.794C166.885 201.263 161.058 201.658 152.244 200.454C140.199 198.808 134.715 196.232 136.022 192.832C136.686 191.105 139.619 191.157 145.714 193.002Z" fill="black"/>
</svg>
